<?xml version="1.0" standalone="no"?>
<!DOCTYPE svg PUBLIC "-//W3C//DTD SVG 20010904//EN"
 "http://www.w3.org/TR/2001/REC-SVG-20010904/DTD/svg10.dtd">
<svg version="1.0" xmlns="http://www.w3.org/2000/svg"
 width="218.000000pt" height="220.000000pt" viewBox="0 0 218.000000 220.000000"
 preserveAspectRatio="xMidYMid meet">

<g transform="translate(0.000000,220.000000) scale(0.100000,-0.100000)"
fill="#000000" stroke="none">
<path d="M965 2089 c-405 -48 -746 -351 -847 -756 -33 -132 -31 -350 5 -485
142 -533 678 -849 1211 -714 174 45 312 123 449 255 129 124 212 262 261 434
120 415 -43 866 -399 1102 -149 99 -268 143 -440 164 -100 12 -138 12 -240 0z
m325 -46 c170 -34 342 -127 473 -256 194 -192 288 -419 288 -695 0 -682 -697
-1145 -1331 -885 -238 98 -452 319 -539 557 -187 517 83 1075 605 1254 56 19
138 36 224 46 56 6 199 -4 280 -21z"/>
<path d="M937 1704 c-200 -48 -379 -218 -443 -418 -31 -98 -35 -244 -10 -341
23 -87 80 -194 137 -258 93 -105 253 -190 380 -204 l59 -6 0 325 0 324 -26 52
c-18 35 -41 63 -72 85 -43 29 -55 32 -133 35 l-87 4 5 -26 c3 -14 19 -49 37
-78 35 -59 111 -112 176 -123 43 -7 61 -35 39 -61 -30 -37 -174 20 -240 94
-56 64 -81 123 -87 205 l-5 70 121 -5 c105 -4 128 -9 177 -32 91 -45 161 -147
166 -244 l3 -40 36 29 c64 52 127 69 250 69 l110 0 0 -39 c0 -21 -9 -69 -21
-107 -18 -57 -30 -77 -82 -129 -93 -91 -213 -126 -205 -59 2 21 13 30 51 44
91 35 157 107 173 190 l7 33 -76 -5 c-131 -8 -212 -70 -236 -178 -5 -25 -10
-129 -11 -233 -1 -160 2 -188 15 -193 27 -11 154 25 228 63 92 47 219 172 265
260 67 128 89 295 56 433 -52 222 -235 408 -459 465 -73 19 -220 18 -298 -1z"/>
</g>
</svg>
